#!OML:ASF E:\VariousWalksJay\Project 1\Capture day 1\Session 1\Actor2.ASF
:FULLY-SPECIFIED
:DEGREES
892
root -6.93842 14.1767 28.3746 16.662 -46.5945 -8.66731
lowerback 37.3268 -1.85328 4.80558
upperback 18.4243 -2.15363 -1.64085
thorax 1.64413 -1.1278 -3.58017
lowerneck 1.13062 1.72569 5.8918
upperneck -14.6607 2.28593 -2.36837
head -4.4801 0.895442 -1.79205
rclavicle 1.43125e-014 -4.96962e-014
rhumerus -10.2582 32.028 -73.3397
rradius 106.015
rwrist 5.2083
rhand -34.7622 -8.37057
rfingers 7.12502
rthumb -7.91524 -38.2024
lclavicle 1.43125e-014 -4.96962e-014
lhumerus 57.4938 -13.9896 42.6596
lradius 78.6178
lwrist 58.892
lhand -37.3012 14.3869
lfingers 7.12502
lthumb -10.3652 44.1115
rfemur -47.0652 6.46632 30.4116
rtibia 84.3218
rfoot -37.1088 -15.3584
rtoes -27.491
lfemur -59.4288 5.0829 -9.74385
ltibia 19.9724
lfoot -10.8144 12.4115
ltoes -17.8808
893
root -7.00665 14.2347 28.5077 16.9947 -46.5514 -8.73469
lowerback 36.7117 -1.97964 4.8738
upperback 18.3121 -2.28899 -1.66223
thorax 1.70008 -1.18102 -3.61041
lowerneck 0.938284 1.81507 5.66591
upperneck -14.3649 2.4094 -2.17825
head -4.35796 0.963703 -1.69538
rclavicle -1.98785e-014 4.05521e-014
rhumerus -11.5229 32.1283 -74.2207
rradius 105.417
rwrist 5.77146
rhand -35.0527 -7.61616
rfingers 7.12502
rthumb -8.19566 -37.4372
lclavicle -1.98785e-014 4.05521e-014
lhumerus 56.39 -14.9443 43.1873
lradius 79.0563
lwrist 58.2737
lhand -37.3811 14.1049
lfingers 7.12502
lthumb -10.4423 43.8256
rfemur -46.5017 6.35187 30.1746
rtibia 83.8072
rfoot -37.008 -14.984
rtoes -28.1933
lfemur -58.7159 4.99572 -9.86521
ltibia 19.3397
lfoot -9.82848 12.432
ltoes -17.8312
894
root -7.07473 14.2954 28.6419 17.3543 -46.4892 -8.79575
lowerback 36.0756 -2.1196 4.94425
upperback 18.2041 -2.44286 -1.694
thorax 1.76899 -1.24211 -3.64932
lowerneck 0.78627 1.91095 5.45754
upperneck -13.789 2.56415 -1.88279
head -4.62369 1.03165 -1.71379
rclavicle 3.02153e-014 -4.13472e-014
rhumerus -12.8004 32.185 -75.1131
rradius 104.808
rwrist 6.33009
rhand -35.3642 -6.82551
rfingers 7.12502
rthumb -8.49624 -36.6346
lclavicle 3.02153e-014 -4.13472e-014
lhumerus 55.2577 -15.8887 43.7079
lradius 79.5188
lwrist 57.6707
lhand -37.4613 13.7967
lfingers 7.12502
lthumb -10.5197 43.5135
rfemur -45.9502 6.21371 29.9338
rtibia 83.2384
rfoot -36.9017 -14.5876
rtoes -28.7959
lfemur -58.1217 4.95407 -10.0565
ltibia 18.7174
lfoot -8.6232 12.4613
ltoes -17.7997
895
root -7.1429 14.3595 28.7763 17.733 -46.4301 -8.84917
lowerback 35.4357 -2.26018 5.00287
upperback 18.098 -2.60359 -1.74161
thorax 1.84361 -1.30642 -3.69852
lowerneck 0.658136 2.01238 5.25481
upperneck -13.6409 2.70944 -1.67778
head -4.54059 1.10748 -1.60692
rclavicle 2.22639e-014 6.32135e-014
rhumerus -14.0876 32.1928 -76.0206
rradius 104.188
rwrist 6.87357
rhand -35.6944 -6.00503
rfingers 7.12502
rthumb -8.81495 -35.8009
lclavicle 2.22639e-014 6.32135e-014
lhumerus 54.1068 -16.8241 44.2121
lradius 79.9998
lwrist 57.0873
lhand -37.5362 13.4699
lfingers 7.12502
lthumb -10.5919 43.183
rfemur -45.4019 6.07585 29.6859
rtibia 82.6123
rfoot -36.772 -14.1997
rtoes -29.3661
lfemur -57.6416 4.98076 -10.31
ltibia 18.1078
lfoot -7.23918 12.4928
ltoes -17.7709
896
root -7.21113 14.4264 28.9108 18.1377 -46.3557 -8.90488
lowerback 34.7909 -2.40704 5.06146
upperback 17.9923 -2.77378 -1.79872
thorax 1.92255 -1.37473 -3.75679
lowerneck 0.537438 2.11804 5.08469
upperneck -13.5107 2.86202 -1.47638
head -4.46618 1.18505 -1.50826
rclavicle 6.59965e-014 -2.38542e-015
rhumerus -15.3817 32.1485 -76.9428
rradius 103.561
rwrist 7.40097
rhand -36.036 -5.16042
rfingers 7.12502
rthumb -9.14451 -34.9422
lclavicle 6.59965e-014 -2.38542e-015
lhumerus 52.9402 -17.7548 44.7073
lradius 80.4883
lwrist 56.5037
lhand -37.6094 13.119
lfingers 7.12502
lthumb -10.6625 42.8284
rfemur -44.8601 5.93302 29.444
rtibia 81.9318
rfoot -36.6182 -13.822
rtoes -29.902
lfemur -57.2872 5.064 -10.6057
ltibia 17.5413
lfoot -5.75838 12.5114
ltoes -17.6502
897
root -7.28019 14.495 29.0446 18.5818 -46.2864 -8.98525
lowerback 34.1494 -2.53807 5.10351
upperback 17.884 -2.93083 -1.85266
thorax 2.00292 -1.43823 -3.8086
lowerneck 0.398024 2.22227 4.9448
upperneck -13.3594 3.0126 -1.27534
head -4.38128 1.26062 -1.41458
rclavicle 3.18055e-015 6.36111e-015
rhumerus -16.6825 32.0451 -77.8672
rradius 102.926
rwrist 7.91565
rhand -36.3833 -4.2942
rfingers 7.12502
rthumb -9.47964 -34.061
lclavicle 3.18055e-015 6.36111e-015
lhumerus 51.7703 -18.6858 45.1983
lradius 80.9734
lwrist 55.9188
lhand -37.6924 12.7337
lfingers 7.12502
lthumb -10.7426 42.439
rfemur -44.3221 5.82607 29.2208
rtibia 81.2027
rfoot -36.4514 -13.432
rtoes -30.3306
lfemur -57.0574 5.24088 -10.9418
ltibia 17.0709
lfoot -4.28537 12.4968
ltoes -17.4359
898
root -7.35014 14.5648 29.1782 19.0451 -46.225 -9.07891
lowerback 33.527 -2.6585 5.13314
upperback 17.7713 -3.079 -1.91459
thorax 2.07601 -1.49825 -3.86567
lowerneck 0.236729 2.32648 4.83403
upperneck -13.1679 3.16304 -1.07122
head -4.27831 1.33559 -1.32414
rclavicle -2.38542e-014 2.22639e-014
rhumerus -17.987 31.8823 -78.8016
rradius 102.29
rwrist 8.39946
rhand -36.727 -3.42833
rfingers 7.12502
rthumb -9.81129 -33.1798
lclavicle -2.38542e-014 2.22639e-014
lhumerus 50.6016 -19.6227 45.6748
lradius 81.4459
lwrist 55.3263
lhand -37.79 12.3262
lfingers 7.12502
lthumb -10.8367 42.0266
rfemur -43.7787 5.75285 29.0108
rtibia 80.4302
rfoot -36.2513 -13.0882
rtoes -30.786
lfemur -56.9378 5.50427 -11.3272
ltibia 16.75
lfoot -2.92553 12.4393
ltoes -17.191
899
root -7.42113 14.6349 29.3119 19.5301 -46.1609 -9.20488
lowerback 32.9332 -2.76916 5.16432
upperback 17.6544 -3.21458 -1.97209
thorax 2.13929 -1.55284 -3.92275
lowerneck 0.0467412 2.42725 4.74825
upperneck -12.9231 3.30693 -0.870172
head -4.15152 1.40771 -1.23769
rclavicle 2.38542e-014 6.24184e-014
rhumerus -19.2933 31.6598 -79.7285
rradius 101.655
rwrist 8.86311
rhand -37.0493 -2.57977
rfingers 7.12502
rthumb -10.1222 -32.3163
lclavicle 2.38542e-014 6.24184e-014
lhumerus 49.4426 -20.5716 46.1485
lradius 81.8977
lwrist 54.73
lhand -37.9093 11.9086
lfingers 7.12502
lthumb -10.9518 41.6029
rfemur -43.2177 5.71353 28.8312
rtibia 79.6205
rfoot -36.0307 -12.7797
rtoes -31.2349
lfemur -56.9119 5.8302 -11.7295
ltibia 16.6227
lfoot -1.78825 12.3406
ltoes -16.8992
900
root -7.49327 14.7046 29.4458 20.0158 -46.1071 -9.34614
lowerback 32.3729 -2.86449 5.18009
upperback 17.5359 -3.33538 -2.02897
thorax 2.19385 -1.60197 -3.97518
lowerneck -0.164458 2.52334 4.67123
upperneck -12.6285 3.44396 -0.654609
head -4.00442 1.47687 -1.14671
rclavicle 1.28812e-013 -3.89618e-014
rhumerus -20.5957 31.3823 -80.6467
rradius 101.025
rwrist 9.31349
rhand -37.3571 -1.7585
rfingers 7.12502
rthumb -10.4191 -31.4803
lclavicle 1.28812e-013 -3.89618e-014
lhumerus 48.297 -21.532 46.6158
lradius 82.3224
lwrist 54.1401
lhand -38.051 11.4858
lfingers 7.12502
lthumb -11.0885 41.1729
rfemur -42.634 5.71626 28.6653
rtibia 78.7809
rfoot -35.7929 -12.4952
rtoes -31.6548
lfemur -56.9466 6.19998 -12.1436
ltibia 16.697
lfoot -0.942498 12.1942
ltoes -16.5909
901
root -7.56599 14.7741 29.5816 20.4771 -46.0466 -9.50495
lowerback 31.8674 -2.96143 5.21258
upperback 17.4203 -3.45302 -2.08682
thorax 2.23414 -1.64917 -4.03719
lowerneck -0.381954 2.61461 4.59609
upperneck -12.304 3.57367 -0.430705
head -3.84744 1.54308 -1.05284
rclavicle -1.59028e-014 2.38542e-015
rhumerus -21.8927 31.0556 -81.5433
rradius 100.404
rwrist 9.75558
rhand -37.6486 -0.968519
rfingers 7.12502
rthumb -10.7004 -30.676
lclavicle -1.59028e-014 2.38542e-015
lhumerus 47.1674 -22.5091 47.085
lradius 82.7156
lwrist 53.5648
lhand -38.2166 11.0593
lfingers 7.12502
lthumb -11.2482 40.7377
rfemur -41.9951 5.73896 28.5148
rtibia 77.9107
rfoot -35.5472 -12.2199
rtoes -32.0051
lfemur -56.9927 6.56633 -12.548
ltibia 16.9485
lfoot -0.353175 11.997
ltoes -16.3824
